<?xml version="1.0" encoding="iso-8859-1"?>
<!-- Generator: Adobe Illustrator 19.0.0, SVG Export Plug-In . SVG Version: 6.00 Build 0)  -->
<svg version="1.1" id="Capa_1" xmlns="http://www.w3.org/2000/svg" xmlns:xlink="http://www.w3.org/1999/xlink" x="0px" y="0px"
	 viewBox="0 0 512 512" style="enable-background:new 0 0 512 512;" xml:space="preserve">
<path style="fill:#C6E2F7;" d="M429.842,119.526c1.713-7.212,2.71-14.689,2.71-22.422C432.552,43.476,389.076,0,335.448,0
	c-42.902,0-84.25,23.208-97.103,61.793c-14.433-8.501-26.174-8.828-44.138-8.828c-53.628,0-97.103,43.476-97.103,97.103
	C43.476,150.069,0,193.545,0,247.172s43.476,97.103,97.103,97.103h35.31h247.172h17.655c63.382,0,114.759-51.377,114.759-114.759
	C512,177.47,477.334,133.588,429.842,119.526z"/>
<g>
	<path style="fill:#1F436D;" d="M256,247.172c-2.26,0-4.52-0.865-6.241-2.586c-3.452-3.452-3.452-9.031,0-12.482l26.483-26.483
		c3.443-3.452,9.039-3.452,12.482,0c3.452,3.452,3.452,9.031,0,12.482l-26.483,26.483C260.52,246.307,258.26,247.172,256,247.172z"
		/>
	<path style="fill:#1F436D;" d="M256,247.172c-2.26,0-4.52-0.865-6.241-2.586l-26.483-26.483c-3.452-3.452-3.452-9.031,0-12.482
		c3.443-3.452,9.039-3.452,12.482,0l26.483,26.483c3.452,3.452,3.452,9.031,0,12.482C260.52,246.307,258.26,247.172,256,247.172z"/>
</g>
<polygon style="fill:#366DB6;" points="300.138,414.897 256,384 211.862,414.897 220.69,361.931 176.552,344.276 220.69,326.621 
	211.862,273.655 256,304.552 300.138,273.655 291.31,326.621 335.448,344.276 291.31,361.931 "/>
<g>
	<path style="fill:#1F436D;" d="M256,512c-4.873,0-8.828-3.946-8.828-8.828V344.276c0-4.882,3.955-8.828,8.828-8.828
		s8.828,3.946,8.828,8.828v158.897C264.828,508.054,260.873,512,256,512z"/>
	<path style="fill:#1F436D;" d="M229.517,485.517c-2.26,0-4.52-0.865-6.241-2.586c-3.452-3.452-3.452-9.031,0-12.482l26.483-26.483
		c3.443-3.452,9.039-3.452,12.482,0c3.452,3.452,3.452,9.031,0,12.482l-26.483,26.483
		C234.037,484.652,231.777,485.517,229.517,485.517z"/>
	<path style="fill:#1F436D;" d="M282.483,485.517c-2.26,0-4.52-0.865-6.241-2.586l-26.483-26.483c-3.452-3.452-3.452-9.031,0-12.482
		c3.443-3.452,9.039-3.452,12.482,0l26.483,26.483c3.452,3.452,3.452,9.031,0,12.482
		C287.003,484.652,284.743,485.517,282.483,485.517z"/>
	<path style="fill:#1F436D;" d="M256.009,353.103c-3.24,0-6.356-1.783-7.901-4.882c-2.18-4.361-0.415-9.666,3.946-11.847
		l141.241-70.621c4.352-2.163,9.657-0.424,11.847,3.946c2.18,4.361,0.415,9.666-3.946,11.847l-141.241,70.621
		C258.684,352.803,257.333,353.103,256.009,353.103z"/>
	<path style="fill:#1F436D;" d="M379.586,317.793c-1.086,0-2.189-0.194-3.266-0.627l-28.487-11.343
		c-4.529-1.801-6.735-6.938-4.935-11.467c1.81-4.537,6.93-6.744,11.467-4.935l28.487,11.343c4.529,1.801,6.735,6.938,4.935,11.467
		C386.41,315.692,383.091,317.793,379.586,317.793z"/>
	<path style="fill:#1F436D;" d="M351.108,306.45c-0.918,0-1.854-0.141-2.772-0.45c-4.626-1.527-7.142-6.515-5.614-11.149
		l10.831-32.794c1.527-4.617,6.524-7.168,11.149-5.614c4.626,1.527,7.142,6.515,5.614,11.149l-10.831,32.794
		C358.259,304.093,354.807,306.45,351.108,306.45z"/>
	<path style="fill:#1F436D;" d="M114.767,423.724c-3.24,0-6.356-1.783-7.901-4.882c-2.18-4.361-0.415-9.666,3.946-11.847
		l141.241-70.621c4.352-2.172,9.657-0.424,11.847,3.946c2.18,4.361,0.415,9.666-3.946,11.847l-141.241,70.621
		C117.442,423.424,116.092,423.724,114.767,423.724z"/>
	<path style="fill:#1F436D;" d="M160.892,399.757c-1.086,0-2.189-0.194-3.266-0.627l-28.487-11.343
		c-4.529-1.801-6.735-6.938-4.935-11.467c1.81-4.537,6.93-6.753,11.467-4.935l28.487,11.343c4.529,1.801,6.735,6.938,4.935,11.467
		C167.724,397.656,164.405,399.757,160.892,399.757z"/>
	<path style="fill:#1F436D;" d="M150.069,432.552c-0.918,0-1.854-0.141-2.772-0.45c-4.626-1.527-7.142-6.515-5.614-11.149
		l10.831-32.794c1.527-4.626,6.532-7.168,11.149-5.614c4.626,1.527,7.142,6.515,5.614,11.149l-10.831,32.794
		C157.228,430.195,153.777,432.552,150.069,432.552z"/>
	<path style="fill:#1F436D;" d="M255.991,353.103c-1.324,0-2.675-0.3-3.946-0.927l-141.241-70.621
		c-4.361-2.18-6.126-7.486-3.946-11.847c2.18-4.361,7.486-6.109,11.847-3.946l141.241,70.621c4.361,2.18,6.126,7.486,3.946,11.847
		C262.347,351.32,259.231,353.103,255.991,353.103z"/>
	<path style="fill:#1F436D;" d="M132.414,317.793c-3.505,0-6.824-2.101-8.201-5.561c-1.801-4.529,0.406-9.666,4.935-11.467
		l28.487-11.343c4.52-1.818,9.666,0.397,11.467,4.935c1.801,4.529-0.406,9.666-4.935,11.467l-28.487,11.343
		C134.612,317.599,133.508,317.793,132.414,317.793z"/>
	<path style="fill:#1F436D;" d="M160.892,306.45c-3.708,0-7.159-2.348-8.377-6.065l-10.831-32.794
		c-1.527-4.626,0.989-9.622,5.614-11.149c4.626-1.554,9.622,0.971,11.149,5.614l10.831,32.794c1.527,4.626-0.989,9.622-5.614,11.149
		C162.745,306.308,161.81,306.45,160.892,306.45z"/>
	<path style="fill:#1F436D;" d="M397.233,423.724c-1.324,0-2.675-0.3-3.946-0.927l-141.241-70.621
		c-4.361-2.18-6.126-7.486-3.946-11.847c2.18-4.361,7.486-6.109,11.847-3.946l141.241,70.621c4.361,2.18,6.126,7.486,3.946,11.847
		C403.588,421.941,400.472,423.724,397.233,423.724z"/>
	<path style="fill:#1F436D;" d="M351.108,399.757c-3.505,0-6.824-2.101-8.201-5.561c-1.801-4.529,0.406-9.666,4.935-11.467
		l28.487-11.343c4.52-1.819,9.666,0.397,11.467,4.935c1.801,4.529-0.406,9.666-4.935,11.467l-28.487,11.343
		C353.298,399.563,352.194,399.757,351.108,399.757z"/>
	<path style="fill:#1F436D;" d="M361.931,432.552c-3.708,0-7.159-2.348-8.377-6.065l-10.831-32.794
		c-1.527-4.626,0.989-9.622,5.614-11.149c4.634-1.554,9.622,0.98,11.149,5.614l10.831,32.794c1.527,4.626-0.989,9.622-5.614,11.149
		C363.776,432.41,362.849,432.552,361.931,432.552z"/>
	<path style="fill:#1F436D;" d="M256,353.103c-4.873,0-8.828-3.946-8.828-8.828V185.379c0-4.882,3.955-8.828,8.828-8.828
		s8.828,3.946,8.828,8.828v158.897C264.828,349.158,260.873,353.103,256,353.103z"/>
</g>
<g>
</g>
<g>
</g>
<g>
</g>
<g>
</g>
<g>
</g>
<g>
</g>
<g>
</g>
<g>
</g>
<g>
</g>
<g>
</g>
<g>
</g>
<g>
</g>
<g>
</g>
<g>
</g>
<g>
</g>
</svg>
